# xmcd
#
# Track frame offsets:
#	150
#	14652
#	27094
#	39635
#	53979
#	66529
#	78681
#	89270
#	102615
#	113665
#	125185
#	136168
#	155514
#	168496
#	178453
#	189367
#	200243
#	232741
#	260152
#	289261
#	312596
#
# Disc length: 4503 seconds
#
# Revision: 0
# Processed by: cddbd v1.5.1PL0 Copyright (c) Steve Scherf et al.
# Submitted via: dBpowerAMP V4.0
#
DISCID=46119515
DTITLE=Beastie Boys - To The 5 Bordughs
DYEAR=2004
DGENRE=Blues
TTITLE0=Ch-check It Out
TTITLE1=Right Right Now Now
TTITLE2=3 The Hard Way
TTITLE3=It Takes Time To Build
TTITLE4=Rhyme The Rhyme Well
TTITLE5=Triple Trouble
TTITLE6=Hey Fuck You
TTITLE7=Oh Word?
TTITLE8=That's It That's All
TTITLE9=All Lifestyles
TTITLE10=Shazam!
TTITLE11=An Open Letter To NYC
TTITLE12=Crawlspace
TTITLE13=The Brouhaha
TTITLE14=We Got The
TTITLE15=Now Get Busy
TTITLE16=Sabotage [Aphrodite Remix]
TTITLE17=Hey Ladies [Remix]
TTITLE18=Intergalactic [Rayner UK Drum - n - Bass Remix]
TTITLE19=Brass Monkey [Bootleg 12 - Inch Remix]
TTITLE20=Intergalactic [Jungle Remix]
EXTD=Artist: Beastie Boys\nAlboum: To The 5 Bordughs\nYear: 2004\nTracks: 21
EXTT0=
EXTT1=
EXTT2=
EXTT3=
EXTT4=
EXTT5=
EXTT6=
EXTT7=
EXTT8=
EXTT9=
EXTT10=
EXTT11=
EXTT12=
EXTT13=
EXTT14=
EXTT15=
EXTT16=
EXTT17=
EXTT18=
EXTT19=
EXTT20=
PLAYORDER=
